<?xml version="1.0" encoding="utf-8"?>
<!-- Generator: Adobe Illustrator 24.1.2, SVG Export Plug-In . SVG Version: 6.00 Build 0)  -->
<svg version="1.1" xmlns="http://www.w3.org/2000/svg" xmlns:xlink="http://www.w3.org/1999/xlink" x="0px" y="0px"
	 viewBox="0 0 30 30" style="enable-background:new 0 0 30 30;" xml:space="preserve">
<style type="text/css">
	.st0{fill:#FFFFFF;}
	.st1{fill:url(#SVGID_1_);}
	.st2{fill:url(#SVGID_2_);}
	.st3{fill:url(#SVGID_3_);}
	.st4{fill:url(#SVGID_4_);}
	.st5{fill:url(#SVGID_5_);}
</style>
<g id="Layer_1">
	<g>
		<g>
			<path class="st0" d="M-25.8,20.4h-14.8c-0.1,0-0.2-0.1-0.2-0.2L-43.1,9c0-0.1,0.1-0.3,0.2-0.3h19.3c0.1,0,0.2,0.1,0.2,0.3
				l-2.3,11.2C-25.6,20.3-25.7,20.4-25.8,20.4z"/>
			<path class="st0" d="M-25.8,20.7h-14.8c-0.2,0-0.4-0.2-0.5-0.4L-43.4,9c0-0.1,0-0.3,0.1-0.4c0.1-0.1,0.2-0.2,0.4-0.2h19.3
				c0.1,0,0.3,0.1,0.4,0.2c0.1,0.1,0.1,0.3,0.1,0.4l-2.3,11.2C-25.4,20.5-25.6,20.7-25.8,20.7z M-23.6,8.9l-19.3,0l2.3,11.2l14.7,0
				L-23.6,8.9z"/>
		</g>
		<path class="st0" d="M-26.3,23.5H-40c-0.4,0-0.7-0.3-0.8-0.7L-44,7.4l-2.6-1.3c-0.3-0.1-0.4-0.5-0.2-0.7c0.1-0.3,0.5-0.4,0.7-0.2
			l2.7,1.4c0.2,0.1,0.4,0.3,0.5,0.6l3.1,15.4h13.6c0.3,0,0.5,0.2,0.5,0.5S-26,23.5-26.3,23.5z M-43.9,7.4L-43.9,7.4L-43.9,7.4z"/>
		<circle class="st0" cx="-27.1" cy="24.1" r="0.9"/>
		<circle class="st0" cx="-39.6" cy="24.1" r="0.9"/>
	</g>
</g>
<g id="Layer_2">
	<g>
		<g>
			<g>
				<path class="st0" d="M24.2,20.4H9.4c-0.1,0-0.2-0.1-0.2-0.2L6.9,9c0-0.1,0.1-0.3,0.2-0.3h19.3c0.1,0,0.2,0.1,0.2,0.3l-2.3,11.2
					C24.4,20.3,24.3,20.4,24.2,20.4z"/>
				<path class="st0" d="M24.2,20.7H9.4c-0.2,0-0.4-0.2-0.5-0.4L6.6,9c0-0.1,0-0.3,0.1-0.4C6.8,8.5,7,8.5,7.1,8.5h19.3
					c0.1,0,0.3,0.1,0.4,0.2c0.1,0.1,0.1,0.3,0.1,0.4l-2.3,11.2C24.6,20.5,24.4,20.7,24.2,20.7z M26.4,8.9L7.1,9l2.3,11.2l14.7,0
					L26.4,8.9z"/>
			</g>
			<path class="st0" d="M23.7,23.5H10c-0.4,0-0.7-0.3-0.8-0.7L6,7.4L3.4,6.1C3.1,5.9,3,5.6,3.1,5.3C3.3,5,3.6,4.9,3.9,5.1l2.7,1.4
				C6.8,6.6,7,6.8,7.1,7l3.1,15.4h13.6c0.3,0,0.5,0.2,0.5,0.5S24,23.5,23.7,23.5z M6.1,7.4L6.1,7.4L6.1,7.4z"/>
			<circle class="st0" cx="22.9" cy="24.1" r="0.9"/>
			<circle class="st0" cx="10.4" cy="24.1" r="0.9"/>
		</g>
		<radialGradient id="SVGID_1_" cx="22.2726" cy="22.2375" r="7.2375" gradientUnits="userSpaceOnUse">
			<stop  offset="0" style="stop-color:#000000;stop-opacity:0.99"/>
			<stop  offset="0.6491" style="stop-color:#020202;stop-opacity:0.9705"/>
			<stop  offset="1" style="stop-color:#0A0A0A;stop-opacity:0.96"/>
		</radialGradient>
		<circle class="st1" cx="22.3" cy="22.2" r="7.2"/>
		<g>
			<g>
				<path class="st0" d="M20,24.9h1.8v-5.2h-1.5v-0.9c0.8-0.1,1.3-0.3,1.8-0.6h1.1v6.7h1.6v1.2H20V24.9z"/>
			</g>
		</g>
	</g>
</g>
<g id="Layer_3">
	<g>
		<g>
			<g>
				<path class="st0" d="M-25.8,70.4h-14.8c-0.1,0-0.2-0.1-0.2-0.2L-43.1,59c0-0.1,0.1-0.3,0.2-0.3h19.3c0.1,0,0.2,0.1,0.2,0.3
					l-2.3,11.2C-25.6,70.3-25.7,70.4-25.8,70.4z"/>
				<path class="st0" d="M-25.8,70.7h-14.8c-0.2,0-0.4-0.2-0.5-0.4L-43.4,59c0-0.1,0-0.3,0.1-0.4c0.1-0.1,0.2-0.2,0.4-0.2h19.3
					c0.1,0,0.3,0.1,0.4,0.2c0.1,0.1,0.1,0.3,0.1,0.4l-2.3,11.2C-25.4,70.5-25.6,70.7-25.8,70.7z M-23.6,58.9l-19.3,0l2.3,11.2
					l14.7,0L-23.6,58.9z"/>
			</g>
			<path class="st0" d="M-26.3,73.5H-40c-0.4,0-0.7-0.3-0.8-0.7L-44,57.4l-2.6-1.3c-0.3-0.1-0.4-0.5-0.2-0.7
				c0.1-0.3,0.5-0.4,0.7-0.2l2.7,1.4c0.2,0.1,0.4,0.3,0.5,0.6l3.1,15.4h13.6c0.3,0,0.5,0.2,0.5,0.5S-26,73.5-26.3,73.5z M-43.9,57.4
				L-43.9,57.4L-43.9,57.4z"/>
			<circle class="st0" cx="-27.1" cy="74.1" r="0.9"/>
			<circle class="st0" cx="-39.6" cy="74.1" r="0.9"/>
		</g>
		<radialGradient id="SVGID_2_" cx="-28.7274" cy="71.2661" r="4.968" gradientUnits="userSpaceOnUse">
			<stop  offset="0" style="stop-color:#000000;stop-opacity:0.99"/>
			<stop  offset="0.6491" style="stop-color:#020202;stop-opacity:0.9705"/>
			<stop  offset="1" style="stop-color:#0A0A0A;stop-opacity:0.96"/>
		</radialGradient>
		<circle class="st2" cx="-28.7" cy="71.3" r="5"/>
		<g>
			<g>
				<path class="st0" d="M-30.6,73.3c1.5-1.5,2.4-2.4,2.4-3.2c0-0.6-0.3-0.9-0.9-0.9c-0.4,0-0.8,0.3-1.1,0.6l-0.5-0.5
					c0.5-0.5,1-0.8,1.7-0.8c1,0,1.7,0.7,1.7,1.7c0,1-0.9,2-2,3.1c0.3,0,0.6-0.1,0.9-0.1h1.3v0.8h-3.7V73.3z"/>
			</g>
		</g>
	</g>
</g>
<g id="Layer_4">
	<g>
		<g>
			<g>
				<path class="st0" d="M24.2,70.4H9.4c-0.1,0-0.2-0.1-0.2-0.2L6.9,59c0-0.1,0.1-0.3,0.2-0.3h19.3c0.1,0,0.2,0.1,0.2,0.3l-2.3,11.2
					C24.4,70.3,24.3,70.4,24.2,70.4z"/>
				<path class="st0" d="M24.2,70.7H9.4c-0.2,0-0.4-0.2-0.5-0.4L6.6,59c0-0.1,0-0.3,0.1-0.4c0.1-0.1,0.2-0.2,0.4-0.2h19.3
					c0.1,0,0.3,0.1,0.4,0.2c0.1,0.1,0.1,0.3,0.1,0.4l-2.3,11.2C24.6,70.5,24.4,70.7,24.2,70.7z M26.4,58.9L7.1,59l2.3,11.2l14.7,0
					L26.4,58.9z"/>
			</g>
			<path class="st0" d="M23.7,73.5H10c-0.4,0-0.7-0.3-0.8-0.7L6,57.4l-2.6-1.3c-0.3-0.1-0.4-0.5-0.2-0.7c0.1-0.3,0.5-0.4,0.7-0.2
				l2.7,1.4C6.8,56.6,7,56.8,7.1,57l3.1,15.4h13.6c0.3,0,0.5,0.2,0.5,0.5S24,73.5,23.7,73.5z M6.1,57.4L6.1,57.4L6.1,57.4z"/>
			<circle class="st0" cx="22.9" cy="74.1" r="0.9"/>
			<circle class="st0" cx="10.4" cy="74.1" r="0.9"/>
		</g>
		<radialGradient id="SVGID_3_" cx="21.2726" cy="71.2661" r="4.968" gradientUnits="userSpaceOnUse">
			<stop  offset="0" style="stop-color:#000000;stop-opacity:0.99"/>
			<stop  offset="0.6491" style="stop-color:#020202;stop-opacity:0.9705"/>
			<stop  offset="1" style="stop-color:#0A0A0A;stop-opacity:0.96"/>
		</radialGradient>
		<circle class="st3" cx="21.3" cy="71.3" r="5"/>
		<g>
			<g>
				<path class="st0" d="M19.3,73.2l0.5-0.6c0.3,0.3,0.7,0.6,1.3,0.6c0.6,0,1-0.3,1-0.8c0-0.6-0.4-0.9-1.6-0.9v-0.7
					c1.1,0,1.4-0.4,1.4-0.9c0-0.5-0.3-0.7-0.8-0.7c-0.4,0-0.8,0.2-1.1,0.5l-0.5-0.6c0.5-0.4,1-0.7,1.6-0.7c1,0,1.7,0.5,1.7,1.4
					c0,0.6-0.4,1-0.9,1.2v0c0.6,0.2,1.1,0.6,1.1,1.3c0,1-0.9,1.6-1.9,1.6C20.3,74,19.7,73.7,19.3,73.2z"/>
			</g>
		</g>
	</g>
</g>
<g id="Layer_5">
	<g>
		<g>
			<g>
				<path class="st0" d="M-25.8,120.4h-14.8c-0.1,0-0.2-0.1-0.2-0.2l-2.3-11.2c0-0.1,0.1-0.3,0.2-0.3h19.3c0.1,0,0.2,0.1,0.2,0.3
					l-2.3,11.2C-25.6,120.3-25.7,120.4-25.8,120.4z"/>
				<path class="st0" d="M-25.8,120.7h-14.8c-0.2,0-0.4-0.2-0.5-0.4l-2.3-11.2c0-0.1,0-0.3,0.1-0.4c0.1-0.1,0.2-0.2,0.4-0.2h19.3
					c0.1,0,0.3,0.1,0.4,0.2c0.1,0.1,0.1,0.3,0.1,0.4l-2.3,11.2C-25.4,120.5-25.6,120.7-25.8,120.7z M-23.6,108.9l-19.3,0l2.3,11.2
					l14.7,0L-23.6,108.9z"/>
			</g>
			<path class="st0" d="M-26.3,123.5H-40c-0.4,0-0.7-0.3-0.8-0.7l-3.1-15.5l-2.6-1.3c-0.3-0.1-0.4-0.5-0.2-0.7
				c0.1-0.3,0.5-0.4,0.7-0.2l2.7,1.4c0.2,0.1,0.4,0.3,0.5,0.6l3.1,15.4h13.6c0.3,0,0.5,0.2,0.5,0.5S-26,123.5-26.3,123.5z
				 M-43.9,107.4L-43.9,107.4L-43.9,107.4z"/>
			<circle class="st0" cx="-27.1" cy="124.1" r="0.9"/>
			<circle class="st0" cx="-39.6" cy="124.1" r="0.9"/>
		</g>
		<radialGradient id="SVGID_4_" cx="-28.7274" cy="121.2661" r="4.968" gradientUnits="userSpaceOnUse">
			<stop  offset="0" style="stop-color:#000000;stop-opacity:0.99"/>
			<stop  offset="0.6491" style="stop-color:#020202;stop-opacity:0.9705"/>
			<stop  offset="1" style="stop-color:#0A0A0A;stop-opacity:0.96"/>
		</radialGradient>
		<circle class="st4" cx="-28.7" cy="121.3" r="5"/>
		<g>
			<g>
				<path class="st0" d="M-28.4,120.5c0-0.3,0-0.8,0-1.1h0c-0.1,0.3-0.3,0.6-0.4,0.8l-1,1.5h3v0.8h-4v-0.7l2.1-3.4h1.2v5.4h-0.9
					V120.5z"/>
			</g>
		</g>
	</g>
</g>
<g id="Layer_6">
	<g>
		<g>
			<g>
				<path class="st0" d="M24.2,120.4H9.4c-0.1,0-0.2-0.1-0.2-0.2L6.9,109c0-0.1,0.1-0.3,0.2-0.3h19.3c0.1,0,0.2,0.1,0.2,0.3
					l-2.3,11.2C24.4,120.3,24.3,120.4,24.2,120.4z"/>
				<path class="st0" d="M24.2,120.7H9.4c-0.2,0-0.4-0.2-0.5-0.4L6.6,109c0-0.1,0-0.3,0.1-0.4c0.1-0.1,0.2-0.2,0.4-0.2h19.3
					c0.1,0,0.3,0.1,0.4,0.2c0.1,0.1,0.1,0.3,0.1,0.4l-2.3,11.2C24.6,120.5,24.4,120.7,24.2,120.7z M26.4,108.9l-19.3,0l2.3,11.2
					l14.7,0L26.4,108.9z"/>
			</g>
			<path class="st0" d="M23.7,123.5H10c-0.4,0-0.7-0.3-0.8-0.7L6,107.4l-2.6-1.3c-0.3-0.1-0.4-0.5-0.2-0.7c0.1-0.3,0.5-0.4,0.7-0.2
				l2.7,1.4c0.2,0.1,0.4,0.3,0.5,0.6l3.1,15.4h13.6c0.3,0,0.5,0.2,0.5,0.5S24,123.5,23.7,123.5z M6.1,107.4L6.1,107.4L6.1,107.4z"/>
			<circle class="st0" cx="22.9" cy="124.1" r="0.9"/>
			<circle class="st0" cx="10.4" cy="124.1" r="0.9"/>
		</g>
		<radialGradient id="SVGID_5_" cx="21.2726" cy="121.2661" r="4.968" gradientUnits="userSpaceOnUse">
			<stop  offset="0" style="stop-color:#000000;stop-opacity:0.99"/>
			<stop  offset="0.6491" style="stop-color:#020202;stop-opacity:0.9705"/>
			<stop  offset="1" style="stop-color:#0A0A0A;stop-opacity:0.96"/>
		</radialGradient>
		<circle class="st5" cx="21.3" cy="121.3" r="5"/>
		<g>
			<g>
				<path class="st0" d="M19.3,123.3l0.5-0.6c0.3,0.3,0.7,0.6,1.3,0.6c0.6,0,1-0.4,1-1c0-0.6-0.4-1-1-1c-0.3,0-0.5,0.1-0.9,0.3
					l-0.5-0.3l0.2-2.7h2.9v0.8h-2l-0.1,1.3c0.2-0.1,0.4-0.2,0.7-0.2c0.9,0,1.7,0.5,1.7,1.7c0,1.2-0.9,1.9-1.9,1.9
					C20.3,124,19.7,123.7,19.3,123.3z"/>
			</g>
		</g>
	</g>
</g>
</svg>
