<?xml version="1.0" encoding="utf-8"?>
<!-- Generator: Adobe Illustrator 24.1.2, SVG Export Plug-In . SVG Version: 6.00 Build 0)  -->
<svg version="1.1" xmlns="http://www.w3.org/2000/svg" xmlns:xlink="http://www.w3.org/1999/xlink" x="0px" y="0px"
	 viewBox="0 0 30 30" style="enable-background:new 0 0 30 30;" xml:space="preserve">
<style type="text/css">
	.st0{fill:#FFFFFF;}
	.st1{fill:url(#SVGID_1_);}
	.st2{fill:url(#SVGID_2_);}
	.st3{fill:url(#SVGID_3_);}
	.st4{fill:url(#SVGID_4_);}
	.st5{fill:url(#SVGID_5_);}
	.st6{fill:url(#SVGID_6_);}
	.st7{fill:url(#SVGID_7_);}
	.st8{fill:url(#SVGID_8_);}
	.st9{fill:url(#SVGID_9_);}
	.st10{fill:url(#SVGID_10_);}
	.st11{fill:url(#SVGID_11_);}
</style>
<g id="Layer_1">
	<g>
		<g>
			<path class="st0" d="M-75.8,20.4h-14.8c-0.1,0-0.2-0.1-0.2-0.2L-93.1,9c0-0.1,0.1-0.3,0.2-0.3h19.3c0.1,0,0.2,0.1,0.2,0.3
				l-2.3,11.2C-75.6,20.3-75.7,20.4-75.8,20.4z"/>
			<path class="st0" d="M-75.8,20.7h-14.8c-0.2,0-0.4-0.2-0.5-0.4L-93.4,9c0-0.1,0-0.3,0.1-0.4c0.1-0.1,0.2-0.2,0.4-0.2h19.3
				c0.1,0,0.3,0.1,0.4,0.2c0.1,0.1,0.1,0.3,0.1,0.4l-2.3,11.2C-75.4,20.5-75.6,20.7-75.8,20.7z M-73.6,8.9l-19.3,0l2.3,11.2l14.7,0
				L-73.6,8.9z"/>
		</g>
		<path class="st0" d="M-76.3,23.5H-90c-0.4,0-0.7-0.3-0.8-0.7L-94,7.4l-2.6-1.3c-0.3-0.1-0.4-0.5-0.2-0.7c0.1-0.3,0.5-0.4,0.7-0.2
			l2.7,1.4c0.2,0.1,0.4,0.3,0.5,0.6l3.1,15.4h13.6c0.3,0,0.5,0.2,0.5,0.5S-76,23.5-76.3,23.5z M-93.9,7.4L-93.9,7.4L-93.9,7.4z"/>
		<circle class="st0" cx="-77.1" cy="24.1" r="0.9"/>
		<circle class="st0" cx="-89.6" cy="24.1" r="0.9"/>
	</g>
</g>
<g id="Layer_2">
	<g>
		<g>
			<g>
				<path class="st0" d="M-25.8,20.4h-14.8c-0.1,0-0.2-0.1-0.2-0.2L-43.1,9c0-0.1,0.1-0.3,0.2-0.3h19.3c0.1,0,0.2,0.1,0.2,0.3
					l-2.3,11.2C-25.6,20.3-25.7,20.4-25.8,20.4z"/>
				<path class="st0" d="M-25.8,20.7h-14.8c-0.2,0-0.4-0.2-0.5-0.4L-43.4,9c0-0.1,0-0.3,0.1-0.4c0.1-0.1,0.2-0.2,0.4-0.2h19.3
					c0.1,0,0.3,0.1,0.4,0.2c0.1,0.1,0.1,0.3,0.1,0.4l-2.3,11.2C-25.4,20.5-25.6,20.7-25.8,20.7z M-23.6,8.9l-19.3,0l2.3,11.2l14.7,0
					L-23.6,8.9z"/>
			</g>
			<path class="st0" d="M-26.3,23.5H-40c-0.4,0-0.7-0.3-0.8-0.7L-44,7.4l-2.6-1.3c-0.3-0.1-0.4-0.5-0.2-0.7c0.1-0.3,0.5-0.4,0.7-0.2
				l2.7,1.4c0.2,0.1,0.4,0.3,0.5,0.6l3.1,15.4h13.6c0.3,0,0.5,0.2,0.5,0.5S-26,23.5-26.3,23.5z M-43.9,7.4L-43.9,7.4L-43.9,7.4z"/>
			<circle class="st0" cx="-27.1" cy="24.1" r="0.9"/>
			<circle class="st0" cx="-39.6" cy="24.1" r="0.9"/>
		</g>
		<radialGradient id="SVGID_1_" cx="-27.7274" cy="22.2375" r="7.2375" gradientUnits="userSpaceOnUse">
			<stop  offset="0" style="stop-color:#000000;stop-opacity:0.99"/>
			<stop  offset="0.6491" style="stop-color:#020202;stop-opacity:0.9705"/>
			<stop  offset="1" style="stop-color:#0A0A0A;stop-opacity:0.96"/>
		</radialGradient>
		<circle class="st1" cx="-27.7" cy="22.2" r="7.2"/>
		<g>
			<g>
				<path class="st0" d="M-30,24.9h1.8v-5.2h-1.5v-0.9c0.8-0.1,1.3-0.3,1.8-0.6h1.1v6.7h1.6v1.2H-30V24.9z"/>
			</g>
		</g>
	</g>
</g>
<g id="Layer_3">
	<g>
		<g>
			<g>
				<path class="st0" d="M-75.8,70.4h-14.8c-0.1,0-0.2-0.1-0.2-0.2L-93.1,59c0-0.1,0.1-0.3,0.2-0.3h19.3c0.1,0,0.2,0.1,0.2,0.3
					l-2.3,11.2C-75.6,70.3-75.7,70.4-75.8,70.4z"/>
				<path class="st0" d="M-75.8,70.7h-14.8c-0.2,0-0.4-0.2-0.5-0.4L-93.4,59c0-0.1,0-0.3,0.1-0.4c0.1-0.1,0.2-0.2,0.4-0.2h19.3
					c0.1,0,0.3,0.1,0.4,0.2c0.1,0.1,0.1,0.3,0.1,0.4l-2.3,11.2C-75.4,70.5-75.6,70.7-75.8,70.7z M-73.6,58.9l-19.3,0l2.3,11.2
					l14.7,0L-73.6,58.9z"/>
			</g>
			<path class="st0" d="M-76.3,73.5H-90c-0.4,0-0.7-0.3-0.8-0.7L-94,57.4l-2.6-1.3c-0.3-0.1-0.4-0.5-0.2-0.7
				c0.1-0.3,0.5-0.4,0.7-0.2l2.7,1.4c0.2,0.1,0.4,0.3,0.5,0.6l3.1,15.4h13.6c0.3,0,0.5,0.2,0.5,0.5S-76,73.5-76.3,73.5z M-93.9,57.4
				L-93.9,57.4L-93.9,57.4z"/>
			<circle class="st0" cx="-77.1" cy="74.1" r="0.9"/>
			<circle class="st0" cx="-89.6" cy="74.1" r="0.9"/>
		</g>
		<radialGradient id="SVGID_2_" cx="-77.7274" cy="72.2375" r="7.2375" gradientUnits="userSpaceOnUse">
			<stop  offset="0" style="stop-color:#000000;stop-opacity:0.99"/>
			<stop  offset="0.6491" style="stop-color:#020202;stop-opacity:0.9705"/>
			<stop  offset="1" style="stop-color:#0A0A0A;stop-opacity:0.96"/>
		</radialGradient>
		<circle class="st2" cx="-77.7" cy="72.2" r="7.2"/>
		<g>
			<g>
				<path class="st0" d="M-80.4,75.3c2.2-2.1,3.6-3.5,3.6-4.7c0-0.8-0.5-1.4-1.3-1.4c-0.6,0-1.1,0.4-1.5,0.9l-0.8-0.8
					c0.7-0.8,1.4-1.2,2.5-1.2c1.5,0,2.5,1,2.5,2.4c0,1.4-1.3,2.8-2.9,4.5c0.4,0,0.9-0.1,1.3-0.1h1.9v1.2h-5.3V75.3z"/>
			</g>
		</g>
	</g>
</g>
<g id="Layer_4">
	<g>
		<g>
			<g>
				<path class="st0" d="M-25.8,70.4h-14.8c-0.1,0-0.2-0.1-0.2-0.2L-43.1,59c0-0.1,0.1-0.3,0.2-0.3h19.3c0.1,0,0.2,0.1,0.2,0.3
					l-2.3,11.2C-25.6,70.3-25.7,70.4-25.8,70.4z"/>
				<path class="st0" d="M-25.8,70.7h-14.8c-0.2,0-0.4-0.2-0.5-0.4L-43.4,59c0-0.1,0-0.3,0.1-0.4c0.1-0.1,0.2-0.2,0.4-0.2h19.3
					c0.1,0,0.3,0.1,0.4,0.2c0.1,0.1,0.1,0.3,0.1,0.4l-2.3,11.2C-25.4,70.5-25.6,70.7-25.8,70.7z M-23.6,58.9l-19.3,0l2.3,11.2
					l14.7,0L-23.6,58.9z"/>
			</g>
			<path class="st0" d="M-26.3,73.5H-40c-0.4,0-0.7-0.3-0.8-0.7L-44,57.4l-2.6-1.3c-0.3-0.1-0.4-0.5-0.2-0.7
				c0.1-0.3,0.5-0.4,0.7-0.2l2.7,1.4c0.2,0.1,0.4,0.3,0.5,0.6l3.1,15.4h13.6c0.3,0,0.5,0.2,0.5,0.5S-26,73.5-26.3,73.5z M-43.9,57.4
				L-43.9,57.4L-43.9,57.4z"/>
			<circle class="st0" cx="-27.1" cy="74.1" r="0.9"/>
			<circle class="st0" cx="-39.6" cy="74.1" r="0.9"/>
		</g>
		<radialGradient id="SVGID_3_" cx="-27.7274" cy="72.2375" r="7.2375" gradientUnits="userSpaceOnUse">
			<stop  offset="0" style="stop-color:#000000;stop-opacity:0.99"/>
			<stop  offset="0.6491" style="stop-color:#020202;stop-opacity:0.9705"/>
			<stop  offset="1" style="stop-color:#0A0A0A;stop-opacity:0.96"/>
		</radialGradient>
		<circle class="st3" cx="-27.7" cy="72.2" r="7.2"/>
		<g>
			<g>
				<path class="st0" d="M-30.6,75.1l0.7-0.9c0.5,0.5,1.1,0.9,1.9,0.9c0.9,0,1.5-0.4,1.5-1.2c0-0.8-0.5-1.3-2.3-1.3v-1
					c1.5,0,2-0.5,2-1.3c0-0.7-0.4-1.1-1.2-1.1c-0.6,0-1.1,0.3-1.6,0.7l-0.7-0.9c0.7-0.6,1.4-1,2.4-1c1.5,0,2.5,0.8,2.5,2.1
					c0,0.9-0.5,1.5-1.4,1.8v0c0.9,0.2,1.6,0.9,1.6,2c0,1.4-1.3,2.3-2.8,2.3C-29.2,76.2-30.1,75.7-30.6,75.1z"/>
			</g>
		</g>
	</g>
</g>
<g id="Layer_5">
	<g>
		<g>
			<g>
				<path class="st0" d="M-75.8,120.4h-14.8c-0.1,0-0.2-0.1-0.2-0.2l-2.3-11.2c0-0.1,0.1-0.3,0.2-0.3h19.3c0.1,0,0.2,0.1,0.2,0.3
					l-2.3,11.2C-75.6,120.3-75.7,120.4-75.8,120.4z"/>
				<path class="st0" d="M-75.8,120.7h-14.8c-0.2,0-0.4-0.2-0.5-0.4l-2.3-11.2c0-0.1,0-0.3,0.1-0.4c0.1-0.1,0.2-0.2,0.4-0.2h19.3
					c0.1,0,0.3,0.1,0.4,0.2c0.1,0.1,0.1,0.3,0.1,0.4l-2.3,11.2C-75.4,120.5-75.6,120.7-75.8,120.7z M-73.6,108.9l-19.3,0l2.3,11.2
					l14.7,0L-73.6,108.9z"/>
			</g>
			<path class="st0" d="M-76.3,123.5H-90c-0.4,0-0.7-0.3-0.8-0.7l-3.1-15.5l-2.6-1.3c-0.3-0.1-0.4-0.5-0.2-0.7
				c0.1-0.3,0.5-0.4,0.7-0.2l2.7,1.4c0.2,0.1,0.4,0.3,0.5,0.6l3.1,15.4h13.6c0.3,0,0.5,0.2,0.5,0.5S-76,123.5-76.3,123.5z
				 M-93.9,107.4L-93.9,107.4L-93.9,107.4z"/>
			<circle class="st0" cx="-77.1" cy="124.1" r="0.9"/>
			<circle class="st0" cx="-89.6" cy="124.1" r="0.9"/>
		</g>
		<radialGradient id="SVGID_4_" cx="-77.7274" cy="122.2375" r="7.2375" gradientUnits="userSpaceOnUse">
			<stop  offset="0" style="stop-color:#000000;stop-opacity:0.99"/>
			<stop  offset="0.6491" style="stop-color:#020202;stop-opacity:0.9705"/>
			<stop  offset="1" style="stop-color:#0A0A0A;stop-opacity:0.96"/>
		</radialGradient>
		<circle class="st4" cx="-77.7" cy="122.2" r="7.2"/>
		<g>
			<g>
				<path class="st0" d="M-77.2,121.2c0-0.5,0-1.2,0.1-1.6h0c-0.2,0.4-0.4,0.8-0.6,1.2l-1.4,2.2h4.4v1.1h-5.8v-1l3.1-4.9h1.7v7.9
					h-1.3V121.2z"/>
			</g>
		</g>
	</g>
</g>
<g id="Layer_6">
	<g>
		<g>
			<g>
				<path class="st0" d="M-25.8,120.4h-14.8c-0.1,0-0.2-0.1-0.2-0.2l-2.3-11.2c0-0.1,0.1-0.3,0.2-0.3h19.3c0.1,0,0.2,0.1,0.2,0.3
					l-2.3,11.2C-25.6,120.3-25.7,120.4-25.8,120.4z"/>
				<path class="st0" d="M-25.8,120.7h-14.8c-0.2,0-0.4-0.2-0.5-0.4l-2.3-11.2c0-0.1,0-0.3,0.1-0.4c0.1-0.1,0.2-0.2,0.4-0.2h19.3
					c0.1,0,0.3,0.1,0.4,0.2c0.1,0.1,0.1,0.3,0.1,0.4l-2.3,11.2C-25.4,120.5-25.6,120.7-25.8,120.7z M-23.6,108.9l-19.3,0l2.3,11.2
					l14.7,0L-23.6,108.9z"/>
			</g>
			<path class="st0" d="M-26.3,123.5H-40c-0.4,0-0.7-0.3-0.8-0.7l-3.1-15.5l-2.6-1.3c-0.3-0.1-0.4-0.5-0.2-0.7
				c0.1-0.3,0.5-0.4,0.7-0.2l2.7,1.4c0.2,0.1,0.4,0.3,0.5,0.6l3.1,15.4h13.6c0.3,0,0.5,0.2,0.5,0.5S-26,123.5-26.3,123.5z
				 M-43.9,107.4L-43.9,107.4L-43.9,107.4z"/>
			<circle class="st0" cx="-27.1" cy="124.1" r="0.9"/>
			<circle class="st0" cx="-39.6" cy="124.1" r="0.9"/>
		</g>
		<radialGradient id="SVGID_5_" cx="-27.7274" cy="122.2375" r="7.2375" gradientUnits="userSpaceOnUse">
			<stop  offset="0" style="stop-color:#000000;stop-opacity:0.99"/>
			<stop  offset="0.6491" style="stop-color:#020202;stop-opacity:0.9705"/>
			<stop  offset="1" style="stop-color:#0A0A0A;stop-opacity:0.96"/>
		</radialGradient>
		<circle class="st5" cx="-27.7" cy="122.2" r="7.2"/>
		<g>
			<g>
				<path class="st0" d="M-30.6,125.1l0.7-0.9c0.5,0.5,1,0.8,1.8,0.8c0.9,0,1.5-0.6,1.5-1.5c0-0.9-0.6-1.5-1.5-1.5
					c-0.5,0-0.8,0.1-1.3,0.4l-0.7-0.4l0.2-3.9h4.2v1.2h-3l-0.2,1.9c0.3-0.2,0.6-0.3,1-0.3c1.4,0,2.5,0.8,2.5,2.5
					c0,1.7-1.3,2.7-2.8,2.7C-29.2,126.2-30,125.7-30.6,125.1z"/>
			</g>
		</g>
	</g>
</g>
<g id="Layer_7">
	<g>
		<g>
			<g>
				<path class="st0" d="M-75.8,170.4h-14.8c-0.1,0-0.2-0.1-0.2-0.2l-2.3-11.2c0-0.1,0.1-0.3,0.2-0.3h19.3c0.1,0,0.2,0.1,0.2,0.3
					l-2.3,11.2C-75.6,170.3-75.7,170.4-75.8,170.4z"/>
				<path class="st0" d="M-75.8,170.7h-14.8c-0.2,0-0.4-0.2-0.5-0.4l-2.3-11.2c0-0.1,0-0.3,0.1-0.4c0.1-0.1,0.2-0.2,0.4-0.2h19.3
					c0.1,0,0.3,0.1,0.4,0.2c0.1,0.1,0.1,0.3,0.1,0.4l-2.3,11.2C-75.4,170.5-75.6,170.7-75.8,170.7z M-73.6,158.9l-19.3,0l2.3,11.2
					l14.7,0L-73.6,158.9z"/>
			</g>
			<path class="st0" d="M-76.3,173.5H-90c-0.4,0-0.7-0.3-0.8-0.7l-3.1-15.5l-2.6-1.3c-0.3-0.1-0.4-0.5-0.2-0.7
				c0.1-0.3,0.5-0.4,0.7-0.2l2.7,1.4c0.2,0.1,0.4,0.3,0.5,0.6l3.1,15.4h13.6c0.3,0,0.5,0.2,0.5,0.5S-76,173.5-76.3,173.5z
				 M-93.9,157.4L-93.9,157.4L-93.9,157.4z"/>
			<circle class="st0" cx="-77.1" cy="174.1" r="0.9"/>
			<circle class="st0" cx="-89.6" cy="174.1" r="0.9"/>
		</g>
		<radialGradient id="SVGID_6_" cx="-77.7274" cy="172.2375" r="7.2375" gradientUnits="userSpaceOnUse">
			<stop  offset="0" style="stop-color:#000000;stop-opacity:0.99"/>
			<stop  offset="0.6491" style="stop-color:#020202;stop-opacity:0.9705"/>
			<stop  offset="1" style="stop-color:#0A0A0A;stop-opacity:0.96"/>
		</radialGradient>
		<circle class="st6" cx="-77.7" cy="172.2" r="7.2"/>
		<g>
			<g>
				<path class="st0" d="M-80.4,172.4c0-3.1,1.5-4.3,3.1-4.3c0.9,0,1.6,0.4,2.1,0.9l-0.8,0.9c-0.3-0.3-0.8-0.6-1.3-0.6
					c-1,0-1.9,0.8-1.9,3.2c0,1.9,0.6,2.8,1.5,2.8c0.7,0,1.2-0.5,1.2-1.5c0-0.9-0.5-1.4-1.2-1.4c-0.5,0-1,0.3-1.5,1l-0.1-1
					c0.5-0.6,1.2-1,1.8-1c1.4,0,2.3,0.8,2.3,2.4c0,1.6-1.1,2.6-2.5,2.6C-79,176.2-80.4,175-80.4,172.4z"/>
			</g>
		</g>
	</g>
</g>
<g id="Layer_8">
	<g>
		<g>
			<g>
				<path class="st0" d="M-25.8,170.4h-14.8c-0.1,0-0.2-0.1-0.2-0.2l-2.3-11.2c0-0.1,0.1-0.3,0.2-0.3h19.3c0.1,0,0.2,0.1,0.2,0.3
					l-2.3,11.2C-25.6,170.3-25.7,170.4-25.8,170.4z"/>
				<path class="st0" d="M-25.8,170.7h-14.8c-0.2,0-0.4-0.2-0.5-0.4l-2.3-11.2c0-0.1,0-0.3,0.1-0.4c0.1-0.1,0.2-0.2,0.4-0.2h19.3
					c0.1,0,0.3,0.1,0.4,0.2c0.1,0.1,0.1,0.3,0.1,0.4l-2.3,11.2C-25.4,170.5-25.6,170.7-25.8,170.7z M-23.6,158.9l-19.3,0l2.3,11.2
					l14.7,0L-23.6,158.9z"/>
			</g>
			<path class="st0" d="M-26.3,173.5H-40c-0.4,0-0.7-0.3-0.8-0.7l-3.1-15.5l-2.6-1.3c-0.3-0.1-0.4-0.5-0.2-0.7
				c0.1-0.3,0.5-0.4,0.7-0.2l2.7,1.4c0.2,0.1,0.4,0.3,0.5,0.6l3.1,15.4h13.6c0.3,0,0.5,0.2,0.5,0.5S-26,173.5-26.3,173.5z
				 M-43.9,157.4L-43.9,157.4L-43.9,157.4z"/>
			<circle class="st0" cx="-27.1" cy="174.1" r="0.9"/>
			<circle class="st0" cx="-39.6" cy="174.1" r="0.9"/>
		</g>
		<radialGradient id="SVGID_7_" cx="-27.7274" cy="172.2375" r="7.2375" gradientUnits="userSpaceOnUse">
			<stop  offset="0" style="stop-color:#000000;stop-opacity:0.99"/>
			<stop  offset="0.6491" style="stop-color:#020202;stop-opacity:0.9705"/>
			<stop  offset="1" style="stop-color:#0A0A0A;stop-opacity:0.96"/>
		</radialGradient>
		<circle class="st7" cx="-27.7" cy="172.2" r="7.2"/>
		<g>
			<g>
				<path class="st0" d="M-26.6,169.4h-3.7v-1.2h5.3v0.9c-1.8,2.3-2.2,3.9-2.3,7h-1.4C-28.7,173.3-28.2,171.5-26.6,169.4z"/>
			</g>
		</g>
	</g>
</g>
<g id="Layer_9">
	<g>
		<g>
			<g>
				<path class="st0" d="M-75.8,220.4h-14.8c-0.1,0-0.2-0.1-0.2-0.2l-2.3-11.2c0-0.1,0.1-0.3,0.2-0.3h19.3c0.1,0,0.2,0.1,0.2,0.3
					l-2.3,11.2C-75.6,220.3-75.7,220.4-75.8,220.4z"/>
				<path class="st0" d="M-75.8,220.7h-14.8c-0.2,0-0.4-0.2-0.5-0.4l-2.3-11.2c0-0.1,0-0.3,0.1-0.4c0.1-0.1,0.2-0.2,0.4-0.2h19.3
					c0.1,0,0.3,0.1,0.4,0.2c0.1,0.1,0.1,0.3,0.1,0.4l-2.3,11.2C-75.4,220.5-75.6,220.7-75.8,220.7z M-73.6,208.9l-19.3,0l2.3,11.2
					l14.7,0L-73.6,208.9z"/>
			</g>
			<path class="st0" d="M-76.3,223.5H-90c-0.4,0-0.7-0.3-0.8-0.7l-3.1-15.5l-2.6-1.3c-0.3-0.1-0.4-0.5-0.2-0.7
				c0.1-0.3,0.5-0.4,0.7-0.2l2.7,1.4c0.2,0.1,0.4,0.3,0.5,0.6l3.1,15.4h13.6c0.3,0,0.5,0.2,0.5,0.5S-76,223.5-76.3,223.5z
				 M-93.9,207.4L-93.9,207.4L-93.9,207.4z"/>
			<circle class="st0" cx="-77.1" cy="224.1" r="0.9"/>
			<circle class="st0" cx="-89.6" cy="224.1" r="0.9"/>
		</g>
		<radialGradient id="SVGID_8_" cx="-77.7274" cy="222.2375" r="7.2375" gradientUnits="userSpaceOnUse">
			<stop  offset="0" style="stop-color:#000000;stop-opacity:0.99"/>
			<stop  offset="0.6491" style="stop-color:#020202;stop-opacity:0.9705"/>
			<stop  offset="1" style="stop-color:#0A0A0A;stop-opacity:0.96"/>
		</radialGradient>
		<circle class="st8" cx="-77.7" cy="222.2" r="7.2"/>
		<g>
			<g>
				<path class="st0" d="M-80.4,224.1c0-1,0.7-1.6,1.4-2V222c-0.6-0.4-1.1-1-1.1-1.8c0-1.3,1-2.1,2.4-2.1c1.4,0,2.3,0.9,2.3,2.1
					c0,0.8-0.5,1.4-1.1,1.8v0c0.7,0.4,1.4,1,1.4,2c0,1.2-1.1,2.1-2.7,2.1C-79.3,226.2-80.4,225.3-80.4,224.1z M-76.4,224
					c0-0.9-0.8-1.2-1.9-1.6c-0.5,0.4-0.9,0.9-0.9,1.5c0,0.8,0.6,1.3,1.5,1.3C-76.9,225.2-76.4,224.8-76.4,224z M-76.5,220.3
					c0-0.7-0.4-1.2-1.2-1.2c-0.6,0-1.1,0.4-1.1,1.1c0,0.8,0.7,1.1,1.6,1.5C-76.8,221.2-76.5,220.8-76.5,220.3z"/>
			</g>
		</g>
	</g>
</g>
<g id="Layer_10">
	<g>
		<g>
			<g>
				<path class="st0" d="M-25.8,220.4h-14.8c-0.1,0-0.2-0.1-0.2-0.2l-2.3-11.2c0-0.1,0.1-0.3,0.2-0.3h19.3c0.1,0,0.2,0.1,0.2,0.3
					l-2.3,11.2C-25.6,220.3-25.7,220.4-25.8,220.4z"/>
				<path class="st0" d="M-25.8,220.7h-14.8c-0.2,0-0.4-0.2-0.5-0.4l-2.3-11.2c0-0.1,0-0.3,0.1-0.4c0.1-0.1,0.2-0.2,0.4-0.2h19.3
					c0.1,0,0.3,0.1,0.4,0.2c0.1,0.1,0.1,0.3,0.1,0.4l-2.3,11.2C-25.4,220.5-25.6,220.7-25.8,220.7z M-23.6,208.9l-19.3,0l2.3,11.2
					l14.7,0L-23.6,208.9z"/>
			</g>
			<path class="st0" d="M-26.3,223.5H-40c-0.4,0-0.7-0.3-0.8-0.7l-3.1-15.5l-2.6-1.3c-0.3-0.1-0.4-0.5-0.2-0.7
				c0.1-0.3,0.5-0.4,0.7-0.2l2.7,1.4c0.2,0.1,0.4,0.3,0.5,0.6l3.1,15.4h13.6c0.3,0,0.5,0.2,0.5,0.5S-26,223.5-26.3,223.5z
				 M-43.9,207.4L-43.9,207.4L-43.9,207.4z"/>
			<circle class="st0" cx="-27.1" cy="224.1" r="0.9"/>
			<circle class="st0" cx="-39.6" cy="224.1" r="0.9"/>
		</g>
		<radialGradient id="SVGID_9_" cx="-27.7274" cy="222.2375" r="7.2375" gradientUnits="userSpaceOnUse">
			<stop  offset="0" style="stop-color:#000000;stop-opacity:0.99"/>
			<stop  offset="0.6491" style="stop-color:#020202;stop-opacity:0.9705"/>
			<stop  offset="1" style="stop-color:#0A0A0A;stop-opacity:0.96"/>
		</radialGradient>
		<circle class="st9" cx="-27.7" cy="222.2" r="7.2"/>
		<g>
			<g>
				<path class="st0" d="M-30.3,225.3l0.8-0.9c0.3,0.3,0.8,0.6,1.3,0.6c1,0,1.9-0.8,1.9-3.2c0-1.9-0.6-2.8-1.5-2.8
					c-0.7,0-1.2,0.5-1.2,1.5c0,0.9,0.5,1.4,1.2,1.4c0.5,0,1-0.3,1.5-1l0.1,1c-0.5,0.6-1.2,1-1.8,1c-1.4,0-2.3-0.8-2.3-2.4
					c0-1.6,1.1-2.6,2.5-2.6c1.5,0,2.9,1.2,2.9,3.9c0,3.1-1.5,4.3-3.1,4.3C-29.2,226.2-29.9,225.8-30.3,225.3z"/>
			</g>
		</g>
	</g>
</g>
<g id="Layer_11">
	<g>
		<g>
			<g>
				<path class="st0" d="M24.2,20.4H9.4c-0.1,0-0.2-0.1-0.2-0.2L6.9,9c0-0.1,0.1-0.3,0.2-0.3h19.3c0.1,0,0.2,0.1,0.2,0.3l-2.3,11.2
					C24.4,20.3,24.3,20.4,24.2,20.4z"/>
				<path class="st0" d="M24.2,20.7H9.4c-0.2,0-0.4-0.2-0.5-0.4L6.6,9c0-0.1,0-0.3,0.1-0.4C6.8,8.5,7,8.5,7.1,8.5h19.3
					c0.1,0,0.3,0.1,0.4,0.2c0.1,0.1,0.1,0.3,0.1,0.4l-2.3,11.2C24.6,20.5,24.4,20.7,24.2,20.7z M26.4,8.9L7.1,9l2.3,11.2l14.7,0
					L26.4,8.9z"/>
			</g>
			<path class="st0" d="M23.7,23.5H10c-0.4,0-0.7-0.3-0.8-0.7L6,7.4L3.4,6.1C3.1,5.9,3,5.6,3.1,5.3C3.3,5,3.6,4.9,3.9,5.1l2.7,1.4
				C6.8,6.6,7,6.8,7.1,7l3.1,15.4h13.6c0.3,0,0.5,0.2,0.5,0.5S24,23.5,23.7,23.5z M6.1,7.4L6.1,7.4L6.1,7.4z"/>
			<circle class="st0" cx="22.9" cy="24.1" r="0.9"/>
			<circle class="st0" cx="10.4" cy="24.1" r="0.9"/>
		</g>
		<radialGradient id="SVGID_10_" cx="22.2726" cy="22.2375" r="7.2375" gradientUnits="userSpaceOnUse">
			<stop  offset="0" style="stop-color:#000000;stop-opacity:0.99"/>
			<stop  offset="0.6491" style="stop-color:#020202;stop-opacity:0.9705"/>
			<stop  offset="1" style="stop-color:#0A0A0A;stop-opacity:0.96"/>
		</radialGradient>
		<circle class="st10" cx="22.3" cy="22.2" r="7.2"/>
		<g>
			<g>
				<path class="st0" d="M16.8,24.9h1.8v-5.2h-1.5v-0.9c0.8-0.1,1.3-0.3,1.8-0.6H20v6.7h1.6v1.2h-4.7V24.9z"/>
				<path class="st0" d="M22.8,22.1c0-2.7,1-4.1,2.7-4.1s2.7,1.4,2.7,4.1c0,2.7-1,4.1-2.7,4.1S22.8,24.8,22.8,22.1z M26.8,22.1
					c0-2.2-0.5-2.9-1.3-2.9c-0.8,0-1.3,0.7-1.3,2.9c0,2.2,0.6,3,1.3,3C26.2,25.1,26.8,24.3,26.8,22.1z"/>
			</g>
		</g>
	</g>
</g>
<g id="Layer_12">
	<g>
		<g>
			<g>
				<path class="st0" d="M74.2,20.4H59.4c-0.1,0-0.2-0.1-0.2-0.2L56.9,9c0-0.1,0.1-0.3,0.2-0.3h19.3c0.1,0,0.2,0.1,0.2,0.3
					l-2.3,11.2C74.4,20.3,74.3,20.4,74.2,20.4z"/>
				<path class="st0" d="M74.2,20.7H59.4c-0.2,0-0.4-0.2-0.5-0.4L56.6,9c0-0.1,0-0.3,0.1-0.4c0.1-0.1,0.2-0.2,0.4-0.2h19.3
					c0.1,0,0.3,0.1,0.4,0.2c0.1,0.1,0.1,0.3,0.1,0.4l-2.3,11.2C74.6,20.5,74.4,20.7,74.2,20.7z M76.4,8.9L57.1,9l2.3,11.2l14.7,0
					L76.4,8.9z"/>
			</g>
			<path class="st0" d="M73.7,23.5H60c-0.4,0-0.7-0.3-0.8-0.7L56,7.4l-2.6-1.3c-0.3-0.1-0.4-0.5-0.2-0.7c0.1-0.3,0.5-0.4,0.7-0.2
				l2.7,1.4C56.8,6.6,57,6.8,57.1,7l3.1,15.4h13.6c0.3,0,0.5,0.2,0.5,0.5S74,23.5,73.7,23.5z M56.1,7.4L56.1,7.4L56.1,7.4z"/>
			<circle class="st0" cx="72.9" cy="24.1" r="0.9"/>
			<circle class="st0" cx="60.4" cy="24.1" r="0.9"/>
		</g>
		<radialGradient id="SVGID_11_" cx="69.065" cy="22.24" r="8.9865" gradientUnits="userSpaceOnUse">
			<stop  offset="0" style="stop-color:#000000;stop-opacity:0.99"/>
			<stop  offset="0.6491" style="stop-color:#020202;stop-opacity:0.9705"/>
			<stop  offset="1" style="stop-color:#0A0A0A;stop-opacity:0.96"/>
		</radialGradient>
		<path class="st11" d="M79.5,22.2c0,4-3.2,7.2-7.2,7.2h-6.4c-4,0-7.2-3.3-7.2-7.2c0-4,3.2-7.2,7.2-7.2h6.4
			C76.3,15,79.5,18.2,79.5,22.2z"/>
		<g>
			<g>
				<path class="st0" d="M60.4,24.9h1.8v-5.2h-1.5v-0.9c0.8-0.1,1.3-0.3,1.8-0.6h1.1v6.7h1.6v1.2h-4.7V24.9z"/>
				<path class="st0" d="M66.4,22.1c0-2.7,1-4.1,2.7-4.1s2.7,1.4,2.7,4.1c0,2.7-1,4.1-2.7,4.1S66.4,24.8,66.4,22.1z M70.4,22.1
					c0-2.2-0.5-2.9-1.3-2.9c-0.8,0-1.3,0.7-1.3,2.9c0,2.2,0.6,3,1.3,3C69.8,25.1,70.4,24.3,70.4,22.1z"/>
				<path class="st0" d="M74.9,22.5h-2.2v-1h2.2v-2.3H76v2.3h2.2v1H76v2.3h-1.1V22.5z"/>
			</g>
		</g>
	</g>
</g>
</svg>
