<?xml version="1.0" encoding="utf-8"?>
<!-- Generator: Adobe Illustrator 24.1.2, SVG Export Plug-In . SVG Version: 6.00 Build 0)  -->
<svg version="1.1" xmlns="http://www.w3.org/2000/svg" xmlns:xlink="http://www.w3.org/1999/xlink" x="0px" y="0px"
	 viewBox="0 0 30 30" style="enable-background:new 0 0 30 30;" xml:space="preserve">
<style type="text/css">
	.st0{fill:#FFFFFF;}
	.st1{fill:url(#SVGID_1_);}
	.st2{fill:url(#SVGID_2_);}
	.st3{fill:url(#SVGID_3_);}
	.st4{fill:url(#SVGID_4_);}
	.st5{fill:url(#SVGID_5_);}
</style>
<g id="Layer_1">
	<g>
		<g>
			<path class="st0" d="M24.2,20.4H9.4c-0.1,0-0.2-0.1-0.2-0.2L6.9,9c0-0.1,0.1-0.3,0.2-0.3h19.3c0.1,0,0.2,0.1,0.2,0.3l-2.3,11.2
				C24.4,20.3,24.3,20.4,24.2,20.4z"/>
			<path class="st0" d="M24.2,20.7H9.4c-0.2,0-0.4-0.2-0.5-0.4L6.6,9c0-0.1,0-0.3,0.1-0.4C6.8,8.5,7,8.5,7.1,8.5h19.3
				c0.1,0,0.3,0.1,0.4,0.2c0.1,0.1,0.1,0.3,0.1,0.4l-2.3,11.2C24.6,20.5,24.4,20.7,24.2,20.7z M26.4,8.9L7.1,9l2.3,11.2l14.7,0
				L26.4,8.9z"/>
		</g>
		<path class="st0" d="M23.7,23.5H10c-0.4,0-0.7-0.3-0.8-0.7L6,7.4L3.4,6.1C3.1,5.9,3,5.6,3.1,5.3C3.3,5,3.6,4.9,3.9,5.1l2.7,1.4
			C6.8,6.6,7,6.8,7.1,7l3.1,15.4h13.6c0.3,0,0.5,0.2,0.5,0.5S24,23.5,23.7,23.5z M6.1,7.4L6.1,7.4L6.1,7.4z"/>
		<circle class="st0" cx="22.9" cy="24.1" r="0.9"/>
		<circle class="st0" cx="10.4" cy="24.1" r="0.9"/>
	</g>
</g>
</svg>
