<?xml version="1.0" encoding="utf-8"?>
<!-- Generator: Adobe Illustrator 24.1.2, SVG Export Plug-In . SVG Version: 6.00 Build 0)  -->
<svg version="1.1" xmlns="http://www.w3.org/2000/svg" xmlns:xlink="http://www.w3.org/1999/xlink" x="0px" y="0px"
	 viewBox="0 0 30 30" style="enable-background:new 0 0 30 30;" xml:space="preserve">
<style type="text/css">
	.st0{fill:#FFFFFF;}
	.st1{fill:url(#SVGID_1_);}
	.st2{fill:url(#SVGID_2_);}
	.st3{fill:url(#SVGID_3_);}
	.st4{fill:url(#SVGID_4_);}
	.st5{fill:url(#SVGID_5_);}
</style>
<g id="Layer_1">
	<g>
		<g>
			<path class="st0" d="M24.2-29.6H9.4c-0.1,0-0.2-0.1-0.2-0.2L6.9-41c0-0.1,0.1-0.3,0.2-0.3h19.3c0.1,0,0.2,0.1,0.2,0.3l-2.3,11.2
				C24.4-29.7,24.3-29.6,24.2-29.6z"/>
			<path class="st0" d="M24.2-29.3H9.4c-0.2,0-0.4-0.2-0.5-0.4L6.6-41c0-0.1,0-0.3,0.1-0.4c0.1-0.1,0.2-0.2,0.4-0.2h19.3
				c0.1,0,0.3,0.1,0.4,0.2c0.1,0.1,0.1,0.3,0.1,0.4l-2.3,11.2C24.6-29.5,24.4-29.3,24.2-29.3z M26.4-41.1L7.1-41l2.3,11.2l14.7,0
				L26.4-41.1z"/>
		</g>
		<path class="st0" d="M23.7-26.5H10c-0.4,0-0.7-0.3-0.8-0.7L6-42.6l-2.6-1.3c-0.3-0.1-0.4-0.5-0.2-0.7c0.1-0.3,0.5-0.4,0.7-0.2
			l2.7,1.4C6.8-43.4,7-43.2,7.1-43l3.1,15.4h13.6c0.3,0,0.5,0.2,0.5,0.5S24-26.5,23.7-26.5z M6.1-42.6L6.1-42.6L6.1-42.6z"/>
		<circle class="st0" cx="22.9" cy="-25.9" r="0.9"/>
		<circle class="st0" cx="10.4" cy="-25.9" r="0.9"/>
	</g>
</g>
<g id="Layer_2">
	<g>
		<g>
			<g>
				<path class="st0" d="M74.2-29.6H59.4c-0.1,0-0.2-0.1-0.2-0.2L56.9-41c0-0.1,0.1-0.3,0.2-0.3h19.3c0.1,0,0.2,0.1,0.2,0.3
					l-2.3,11.2C74.4-29.7,74.3-29.6,74.2-29.6z"/>
				<path class="st0" d="M74.2-29.3H59.4c-0.2,0-0.4-0.2-0.5-0.4L56.6-41c0-0.1,0-0.3,0.1-0.4c0.1-0.1,0.2-0.2,0.4-0.2h19.3
					c0.1,0,0.3,0.1,0.4,0.2c0.1,0.1,0.1,0.3,0.1,0.4l-2.3,11.2C74.6-29.5,74.4-29.3,74.2-29.3z M76.4-41.1l-19.3,0l2.3,11.2l14.7,0
					L76.4-41.1z"/>
			</g>
			<path class="st0" d="M73.7-26.5H60c-0.4,0-0.7-0.3-0.8-0.7L56-42.6l-2.6-1.3c-0.3-0.1-0.4-0.5-0.2-0.7c0.1-0.3,0.5-0.4,0.7-0.2
				l2.7,1.4c0.2,0.1,0.4,0.3,0.5,0.6l3.1,15.4h13.6c0.3,0,0.5,0.2,0.5,0.5S74-26.5,73.7-26.5z M56.1-42.6L56.1-42.6L56.1-42.6z"/>
			<circle class="st0" cx="72.9" cy="-25.9" r="0.9"/>
			<circle class="st0" cx="60.4" cy="-25.9" r="0.9"/>
		</g>
		<radialGradient id="SVGID_1_" cx="72.2726" cy="-27.7625" r="7.2375" gradientUnits="userSpaceOnUse">
			<stop  offset="0" style="stop-color:#000000;stop-opacity:0.99"/>
			<stop  offset="0.6491" style="stop-color:#020202;stop-opacity:0.9705"/>
			<stop  offset="1" style="stop-color:#0A0A0A;stop-opacity:0.96"/>
		</radialGradient>
		<circle class="st1" cx="72.3" cy="-27.8" r="7.2"/>
		<g>
			<g>
				<path class="st0" d="M70-25.1h1.8v-5.2h-1.5v-0.9c0.8-0.1,1.3-0.3,1.8-0.6h1.1v6.7h1.6v1.2H70V-25.1z"/>
			</g>
		</g>
	</g>
</g>
<g id="Layer_3">
	<g>
		<g>
			<g>
				<path class="st0" d="M24.2,20.4H9.4c-0.1,0-0.2-0.1-0.2-0.2L6.9,9c0-0.1,0.1-0.3,0.2-0.3h19.3c0.1,0,0.2,0.1,0.2,0.3l-2.3,11.2
					C24.4,20.3,24.3,20.4,24.2,20.4z"/>
				<path class="st0" d="M24.2,20.7H9.4c-0.2,0-0.4-0.2-0.5-0.4L6.6,9c0-0.1,0-0.3,0.1-0.4C6.8,8.5,7,8.5,7.1,8.5h19.3
					c0.1,0,0.3,0.1,0.4,0.2c0.1,0.1,0.1,0.3,0.1,0.4l-2.3,11.2C24.6,20.5,24.4,20.7,24.2,20.7z M26.4,8.9L7.1,9l2.3,11.2l14.7,0
					L26.4,8.9z"/>
			</g>
			<path class="st0" d="M23.7,23.5H10c-0.4,0-0.7-0.3-0.8-0.7L6,7.4L3.4,6.1C3.1,5.9,3,5.6,3.1,5.3C3.3,5,3.6,4.9,3.9,5.1l2.7,1.4
				C6.8,6.6,7,6.8,7.1,7l3.1,15.4h13.6c0.3,0,0.5,0.2,0.5,0.5S24,23.5,23.7,23.5z M6.1,7.4L6.1,7.4L6.1,7.4z"/>
			<circle class="st0" cx="22.9" cy="24.1" r="0.9"/>
			<circle class="st0" cx="10.4" cy="24.1" r="0.9"/>
		</g>
		<radialGradient id="SVGID_2_" cx="22.2726" cy="22.2375" r="7.2375" gradientUnits="userSpaceOnUse">
			<stop  offset="0" style="stop-color:#000000;stop-opacity:0.99"/>
			<stop  offset="0.6491" style="stop-color:#020202;stop-opacity:0.9705"/>
			<stop  offset="1" style="stop-color:#0A0A0A;stop-opacity:0.96"/>
		</radialGradient>
		<circle class="st2" cx="22.3" cy="22.2" r="7.2"/>
		<g>
			<g>
				<path class="st0" d="M19.6,25.3c2.2-2.1,3.6-3.5,3.6-4.7c0-0.8-0.5-1.4-1.3-1.4c-0.6,0-1.1,0.4-1.5,0.9l-0.8-0.8
					c0.7-0.8,1.4-1.2,2.5-1.2c1.5,0,2.5,1,2.5,2.4c0,1.4-1.3,2.8-2.9,4.5c0.4,0,0.9-0.1,1.3-0.1h1.9v1.2h-5.3V25.3z"/>
			</g>
		</g>
	</g>
</g>
<g id="Layer_4">
	<g>
		<g>
			<g>
				<path class="st0" d="M74.2,20.4H59.4c-0.1,0-0.2-0.1-0.2-0.2L56.9,9c0-0.1,0.1-0.3,0.2-0.3h19.3c0.1,0,0.2,0.1,0.2,0.3
					l-2.3,11.2C74.4,20.3,74.3,20.4,74.2,20.4z"/>
				<path class="st0" d="M74.2,20.7H59.4c-0.2,0-0.4-0.2-0.5-0.4L56.6,9c0-0.1,0-0.3,0.1-0.4c0.1-0.1,0.2-0.2,0.4-0.2h19.3
					c0.1,0,0.3,0.1,0.4,0.2c0.1,0.1,0.1,0.3,0.1,0.4l-2.3,11.2C74.6,20.5,74.4,20.7,74.2,20.7z M76.4,8.9L57.1,9l2.3,11.2l14.7,0
					L76.4,8.9z"/>
			</g>
			<path class="st0" d="M73.7,23.5H60c-0.4,0-0.7-0.3-0.8-0.7L56,7.4l-2.6-1.3c-0.3-0.1-0.4-0.5-0.2-0.7c0.1-0.3,0.5-0.4,0.7-0.2
				l2.7,1.4C56.8,6.6,57,6.8,57.1,7l3.1,15.4h13.6c0.3,0,0.5,0.2,0.5,0.5S74,23.5,73.7,23.5z M56.1,7.4L56.1,7.4L56.1,7.4z"/>
			<circle class="st0" cx="72.9" cy="24.1" r="0.9"/>
			<circle class="st0" cx="60.4" cy="24.1" r="0.9"/>
		</g>
		<radialGradient id="SVGID_3_" cx="72.2726" cy="22.2375" r="7.2375" gradientUnits="userSpaceOnUse">
			<stop  offset="0" style="stop-color:#000000;stop-opacity:0.99"/>
			<stop  offset="0.6491" style="stop-color:#020202;stop-opacity:0.9705"/>
			<stop  offset="1" style="stop-color:#0A0A0A;stop-opacity:0.96"/>
		</radialGradient>
		<circle class="st3" cx="72.3" cy="22.2" r="7.2"/>
		<g>
			<g>
				<path class="st0" d="M69.4,25.1l0.7-0.9c0.5,0.5,1.1,0.9,1.9,0.9c0.9,0,1.5-0.4,1.5-1.2c0-0.8-0.5-1.3-2.3-1.3v-1
					c1.5,0,2-0.5,2-1.3c0-0.7-0.4-1.1-1.2-1.1c-0.6,0-1.1,0.3-1.6,0.7l-0.7-0.9c0.7-0.6,1.4-1,2.4-1c1.5,0,2.5,0.8,2.5,2.1
					c0,0.9-0.5,1.5-1.4,1.8v0c0.9,0.2,1.6,0.9,1.6,2c0,1.4-1.3,2.3-2.8,2.3C70.8,26.2,69.9,25.7,69.4,25.1z"/>
			</g>
		</g>
	</g>
</g>
<g id="Layer_5">
	<g>
		<g>
			<g>
				<path class="st0" d="M24.2,70.4H9.4c-0.1,0-0.2-0.1-0.2-0.2L6.9,59c0-0.1,0.1-0.3,0.2-0.3h19.3c0.1,0,0.2,0.1,0.2,0.3l-2.3,11.2
					C24.4,70.3,24.3,70.4,24.2,70.4z"/>
				<path class="st0" d="M24.2,70.7H9.4c-0.2,0-0.4-0.2-0.5-0.4L6.6,59c0-0.1,0-0.3,0.1-0.4c0.1-0.1,0.2-0.2,0.4-0.2h19.3
					c0.1,0,0.3,0.1,0.4,0.2c0.1,0.1,0.1,0.3,0.1,0.4l-2.3,11.2C24.6,70.5,24.4,70.7,24.2,70.7z M26.4,58.9L7.1,59l2.3,11.2l14.7,0
					L26.4,58.9z"/>
			</g>
			<path class="st0" d="M23.7,73.5H10c-0.4,0-0.7-0.3-0.8-0.7L6,57.4l-2.6-1.3c-0.3-0.1-0.4-0.5-0.2-0.7c0.1-0.3,0.5-0.4,0.7-0.2
				l2.7,1.4C6.8,56.6,7,56.8,7.1,57l3.1,15.4h13.6c0.3,0,0.5,0.2,0.5,0.5S24,73.5,23.7,73.5z M6.1,57.4L6.1,57.4L6.1,57.4z"/>
			<circle class="st0" cx="22.9" cy="74.1" r="0.9"/>
			<circle class="st0" cx="10.4" cy="74.1" r="0.9"/>
		</g>
		<radialGradient id="SVGID_4_" cx="22.2726" cy="72.2375" r="7.2375" gradientUnits="userSpaceOnUse">
			<stop  offset="0" style="stop-color:#000000;stop-opacity:0.99"/>
			<stop  offset="0.6491" style="stop-color:#020202;stop-opacity:0.9705"/>
			<stop  offset="1" style="stop-color:#0A0A0A;stop-opacity:0.96"/>
		</radialGradient>
		<circle class="st4" cx="22.3" cy="72.2" r="7.2"/>
		<g>
			<g>
				<path class="st0" d="M22.8,71.2c0-0.5,0-1.2,0.1-1.6h0c-0.2,0.4-0.4,0.8-0.6,1.2L20.7,73h4.4v1.1h-5.8v-1l3.1-4.9h1.7v7.9h-1.3
					V71.2z"/>
			</g>
		</g>
	</g>
</g>
<g id="Layer_6">
	<g>
		<g>
			<g>
				<path class="st0" d="M74.2,70.4H59.4c-0.1,0-0.2-0.1-0.2-0.2L56.9,59c0-0.1,0.1-0.3,0.2-0.3h19.3c0.1,0,0.2,0.1,0.2,0.3
					l-2.3,11.2C74.4,70.3,74.3,70.4,74.2,70.4z"/>
				<path class="st0" d="M74.2,70.7H59.4c-0.2,0-0.4-0.2-0.5-0.4L56.6,59c0-0.1,0-0.3,0.1-0.4c0.1-0.1,0.2-0.2,0.4-0.2h19.3
					c0.1,0,0.3,0.1,0.4,0.2c0.1,0.1,0.1,0.3,0.1,0.4l-2.3,11.2C74.6,70.5,74.4,70.7,74.2,70.7z M76.4,58.9l-19.3,0l2.3,11.2l14.7,0
					L76.4,58.9z"/>
			</g>
			<path class="st0" d="M73.7,73.5H60c-0.4,0-0.7-0.3-0.8-0.7L56,57.4l-2.6-1.3c-0.3-0.1-0.4-0.5-0.2-0.7c0.1-0.3,0.5-0.4,0.7-0.2
				l2.7,1.4c0.2,0.1,0.4,0.3,0.5,0.6l3.1,15.4h13.6c0.3,0,0.5,0.2,0.5,0.5S74,73.5,73.7,73.5z M56.1,57.4L56.1,57.4L56.1,57.4z"/>
			<circle class="st0" cx="72.9" cy="74.1" r="0.9"/>
			<circle class="st0" cx="60.4" cy="74.1" r="0.9"/>
		</g>
		<radialGradient id="SVGID_5_" cx="72.2726" cy="72.2375" r="7.2375" gradientUnits="userSpaceOnUse">
			<stop  offset="0" style="stop-color:#000000;stop-opacity:0.99"/>
			<stop  offset="0.6491" style="stop-color:#020202;stop-opacity:0.9705"/>
			<stop  offset="1" style="stop-color:#0A0A0A;stop-opacity:0.96"/>
		</radialGradient>
		<circle class="st5" cx="72.3" cy="72.2" r="7.2"/>
		<g>
			<g>
				<path class="st0" d="M69.4,75.1l0.7-0.9c0.5,0.5,1,0.8,1.8,0.8c0.9,0,1.5-0.6,1.5-1.5c0-0.9-0.6-1.5-1.5-1.5
					c-0.5,0-0.8,0.1-1.3,0.4L70,72.1l0.2-3.9h4.2v1.2h-3l-0.2,1.9c0.3-0.2,0.6-0.3,1-0.3c1.4,0,2.5,0.8,2.5,2.5
					c0,1.7-1.3,2.7-2.8,2.7C70.8,76.2,70,75.7,69.4,75.1z"/>
			</g>
		</g>
	</g>
</g>
<g id="Layer_7">
</g>
</svg>
