<?xml version="1.0" encoding="utf-8"?>
<!-- Generator: Adobe Illustrator 27.2.0, SVG Export Plug-In . SVG Version: 6.00 Build 0)  -->
<svg version="1.1" id="Layer_1" xmlns="http://www.w3.org/2000/svg" xmlns:xlink="http://www.w3.org/1999/xlink" x="0px" y="0px"
	 viewBox="0 0 30 30" style="enable-background:new 0 0 30 30;" xml:space="preserve">
<style type="text/css">
	.st0{fill:#FFFFFF;}
</style>
<path class="st0" d="M15,3.97C8.91,3.97,3.97,8.91,3.97,15c0,6.03,4.84,10.92,10.84,11.02v-7.34h-2.62v-2.93h2.62v-1.4
	c0-1.8,0.45-3.11,1.36-4c1.3-1.25,3.05-1.2,4.31-1.17c0.2,0.01,0.38,0.02,0.56,0.02v3.06c-0.21,0-0.43-0.01-0.65-0.02
	c-0.81-0.02-1.72-0.05-2.09,0.31c-0.28,0.27-0.43,0.91-0.43,1.8v1.4h2.99l-0.36,2.93h-2.63v6.96c4.7-1.26,8.16-5.54,8.16-10.64
	C26.03,8.91,21.09,3.97,15,3.97z"/>
<g>
	<path class="st0" d="M68.98,26.03h-7.97c-3.89,0-7.05-3.16-7.05-7.05v-7.97c0-3.89,3.16-7.05,7.05-7.05h7.97
		c3.89,0,7.05,3.16,7.05,7.05v7.97C76.03,22.87,72.87,26.03,68.98,26.03z M61.02,5.62c-2.98,0-5.4,2.42-5.4,5.4v7.97
		c0,2.98,2.42,5.4,5.4,5.4h7.97c2.98,0,5.4-2.42,5.4-5.4v-7.97c0-2.98-2.42-5.4-5.4-5.4H61.02z"/>
	<path class="st0" d="M65,20.6c-3.09,0-5.6-2.51-5.6-5.6c0-3.09,2.51-5.6,5.6-5.6s5.6,2.51,5.6,5.6C70.6,18.09,68.09,20.6,65,20.6z
		 M65,11.05c-2.18,0-3.95,1.77-3.95,3.95s1.77,3.95,3.95,3.95s3.95-1.77,3.95-3.95S67.18,11.05,65,11.05z"/>
	<circle class="st0" cx="70.46" cy="8.85" r="1.18"/>
</g>
</svg>
